<?xml version="1.0" encoding="UTF-8"?>
<!DOCTYPE svg PUBLIC "-//W3C//DTD SVG 1.1//EN" "http://www.w3.org/Graphics/SVG/1.1/DTD/svg11.dtd">
<!-- Creator: CorelDRAW X7 -->
<svg xmlns="http://www.w3.org/2000/svg" xml:space="preserve" width="82.2092mm" height="100.088mm" version="1.1" style="shape-rendering:geometricPrecision; text-rendering:geometricPrecision; image-rendering:optimizeQuality; fill-rule:evenodd; clip-rule:evenodd"
viewBox="0 0 3410 4151"
 xmlns:xlink="http://www.w3.org/1999/xlink">
 <defs>
  <style type="text/css">
   <![CDATA[
    .fil1 {fill:black}
    .fil0 {fill:black;fill-rule:nonzero}
   ]]>
  </style>
 </defs>
 <g id="Слой_x0020_1">
  <metadata id="CorelCorpID_0Corel-Layer"/>
  <g id="_2317519049328">
   <path class="fil0" d="M1581 597c10,25 33,54 60,74 25,18 53,30 79,30 24,0 45,-7 64,-18 18,-12 34,-29 49,-50 21,-29 32,-60 36,-92 6,-38 1,-84 -1,-122 25,32 27,93 21,128 -5,36 -13,68 -36,100 -17,23 -35,42 -56,56 -22,14 -48,22 -77,22 -31,0 -64,-14 -93,-35 -31,-22 -56,-55 -68,-83 -4,-11 14,-22 22,-10z"/>
   <path class="fil0" d="M1889 855c15,10 31,17 49,21 18,5 37,8 58,9 10,1 18,1 26,2 53,2 74,3 115,32 21,16 37,31 47,47 11,17 18,34 22,56 6,32 -4,87 -15,145 -1,6 -2,11 -3,17 -5,28 -10,55 -16,82 -6,30 -12,59 -17,90 -12,69 -23,117 -34,183 -6,40 -18,116 -46,225 11,-62 14,-154 23,-212 11,-68 22,-136 33,-201 5,-29 11,-59 17,-89 6,-28 12,-55 17,-82 1,-6 2,-11 3,-17 10,-56 19,-109 14,-136 -3,-19 -9,-34 -18,-48 -9,-13 -22,-26 -42,-40 -20,-15 -36,-22 -55,-25 -36,16 -90,38 -123,52 -60,24 -118,48 -176,77 -63,31 -113,59 -155,89 -40,29 -72,59 -100,96 -33,44 -55,81 -70,122 -14,40 -20,84 -22,139 -2,62 12,116 26,171 6,24 12,48 17,73 3,15 5,30 8,45 2,15 3,29 4,44l0 1c1,27 0,55 -4,83 -3,25 -8,50 -16,74 -17,54 -49,98 -81,143 -12,16 -24,33 -35,51 -14,22 -27,44 -38,66 -11,22 -21,44 -29,67 -11,33 -20,67 -25,102 -5,35 -11,102 -9,138 -7,-28 -8,-55 -10,-77 -3,-50 5,-123 21,-171 8,-24 19,-47 30,-70 12,-24 26,-46 40,-68 11,-18 24,-35 36,-52 30,-43 61,-86 77,-136 7,-23 12,-46 15,-70 4,-26 5,-53 4,-79l0 0c-1,-15 -2,-29 -4,-43 -2,-14 -5,-28 -8,-43 -5,-25 -11,-49 -16,-72 -15,-57 -29,-112 -27,-178 2,-58 8,-103 24,-146 15,-43 38,-83 73,-129 29,-38 62,-70 105,-101 43,-30 94,-59 159,-91 58,-29 116,-53 177,-78 26,-10 52,-21 80,-33 -7,0 -14,0 -21,-1 -22,-1 -43,-4 -62,-9 -20,-6 -39,-13 -57,-25 -49,-32 -89,-140 -55,-176 4,24 5,57 21,94 9,22 22,45 48,62z"/>
   <path class="fil0" d="M1459 319c-4,9 -8,20 -12,33 -2,8 -5,17 -7,25 2,-4 5,-9 7,-13 10,-15 21,-28 33,-40 13,-13 28,-25 44,-36 31,-22 69,-39 108,-57 66,-32 136,-64 179,-120 -69,-20 -135,-9 -192,23 -70,38 -127,107 -160,185zm106 443l0 0c-17,31 -44,64 -82,87 9,0 18,0 26,-2 13,-3 25,-8 35,-16 50,-37 55,-90 61,-146 28,18 20,49 9,88 -7,20 -16,38 -28,51 -5,6 -11,12 -17,17 -7,6 -13,10 -20,15 -10,8 -22,12 -35,15 -12,2 -25,2 -38,2 -16,0 -32,-2 -48,-3 -15,-2 -31,-3 -46,-3 -21,0 -41,1 -60,4 -19,3 -37,8 -54,17l0 0c-17,8 -31,21 -41,36 -13,16 -21,35 -25,53 -3,11 -4,28 -4,47 0,21 2,45 4,66 3,23 7,47 11,72 4,25 9,50 13,75 6,29 12,57 18,86 5,28 11,57 17,84 17,93 27,186 30,280 -18,-92 -37,-183 -54,-276 -6,-28 -11,-56 -17,-83 -6,-29 -12,-59 -17,-87 -5,-25 -10,-51 -14,-75 -4,-26 -8,-50 -11,-74 -2,-20 -4,-45 -4,-68 0,-20 1,-39 4,-52 5,-22 15,-44 29,-63 13,-17 30,-32 50,-42l0 0c20,-10 40,-16 61,-20 13,-2 26,-3 40,-4 9,-10 18,-26 20,-31 16,-34 19,-76 23,-118l0 -5 0 0 0 0c2,-38 0,-73 -1,-107 -3,-63 -5,-122 12,-195 4,-15 8,-29 12,-42 4,-13 9,-25 13,-36 35,-82 96,-155 171,-196 67,-37 145,-49 226,-20l15 5 -9 13c-45,70 -124,107 -198,141 -38,18 -74,35 -104,56 -16,11 -29,21 -41,33 -11,11 -21,23 -29,36 -32,51 -39,115 -40,179 13,-30 31,-57 51,-81 28,-32 59,-58 87,-76 29,-20 58,-34 86,-48 34,-17 68,-34 100,-60 41,-33 70,-60 87,-88 25,-39 23,-58 22,-102 63,48 76,74 104,149l1 2c25,68 35,139 23,213 -14,85 -42,152 -110,206 49,-68 76,-146 86,-210 12,-70 3,-137 -21,-200l-1 -3c-8,-20 -15,-37 -23,-55 1,26 0,50 -5,73 -9,39 -26,73 -54,102 -36,38 -93,67 -150,96 -43,22 -87,44 -121,69 -76,58 -89,105 -107,169 -6,20 -12,43 -21,67 -4,11 -19,47 -33,67l1 0c7,1 13,1 19,2 85,-53 115,-114 115,-212 30,36 16,89 1,126zm-176 81c4,0 9,0 13,1 26,-27 48,-105 58,-139 19,-68 33,-119 116,-181 36,-27 80,-49 124,-72 55,-28 110,-55 144,-90 24,-26 40,-56 47,-91 7,-34 7,-73 -1,-115 -2,-3 -4,-5 -7,-8 -2,24 -9,46 -23,68 -19,30 -50,59 -93,94 -34,27 -69,45 -105,62 -27,14 -55,28 -83,47 -26,17 -56,42 -81,72 -21,24 -39,52 -52,84 -14,37 -18,79 -21,121 -4,45 -8,90 -26,128 -3,5 -6,13 -10,19z"/>
   <path class="fil0" d="M1308 1323c4,-83 34,-164 101,-241 23,-26 47,-50 72,-73 26,-23 59,-39 89,-52 -21,16 -53,43 -83,72 -33,32 -70,77 -96,116 -38,58 -51,117 -53,178 -4,78 12,176 48,258 -59,-19 -80,-202 -78,-258z"/>
   <path class="fil0" d="M1810 1486c29,19 62,29 96,29 35,0 69,-9 97,-28l0 0c30,-19 49,-46 58,-76 12,-35 11,-75 2,-113 -5,-22 -13,-39 -23,-55 -8,-12 -23,-26 -35,-37 -15,-14 -8,-15 11,-5 79,41 93,139 68,217 -11,36 -33,67 -68,90l0 0c-32,20 -71,31 -110,31 -38,0 -77,-11 -109,-33 -17,-12 -33,-26 -46,-43 -14,-17 -28,-46 -24,-68 17,39 49,68 83,91z"/>
   <path class="fil0" d="M1525 1841c-18,-25 -33,-78 -38,-111 -4,-32 -6,-64 -6,-96 1,-44 6,-82 16,-118 9,-35 23,-67 40,-98 31,-56 76,-108 130,-150 20,-16 115,-82 200,-87 -64,19 -136,67 -185,106 -52,40 -94,89 -124,142 -16,29 -29,60 -38,94 -9,33 -14,70 -15,111 0,60 9,148 20,207z"/>
   <path class="fil0" d="M1251 2664c-4,-38 -7,-77 -7,-118 1,-71 9,-135 27,-196 19,-62 48,-120 89,-180 27,-39 58,-74 91,-108 32,-34 67,-66 101,-97 18,-17 34,-32 50,-46 15,-13 32,-28 50,-45 17,-15 21,-18 26,-22 56,-50 110,-98 150,-146 18,-22 33,-44 47,-69 26,-39 31,-81 70,-86 -12,29 -35,72 -49,98 -14,25 -30,49 -49,72 -42,50 -97,99 -154,149l-25 22c-16,14 -32,29 -50,45 -18,16 -35,32 -50,45 -33,31 -67,63 -100,96 -32,34 -62,68 -88,106 -40,58 -68,114 -86,173 -17,58 -25,120 -26,189 0,78 10,163 23,240 -23,-23 -37,-99 -40,-122z"/>
   <path class="fil0" d="M1314 2758c1,-38 3,-73 7,-112 27,-239 174,-380 331,-530 23,-23 46,-45 69,-68l1 0 0 -1c35,-27 65,-58 91,-91 26,-33 49,-68 68,-105l0 0c15,-29 37,-92 55,-153 11,-42 21,-83 26,-112 4,-33 8,-47 29,-47 -7,79 -13,130 -9,203 4,69 3,92 29,150 38,83 68,120 104,196 24,51 53,107 68,160 22,77 22,177 4,272 -16,81 -46,158 -77,220 -22,45 -48,89 -74,133 -34,57 -67,115 -94,177 -29,65 -49,117 -71,185 8,-82 22,-120 58,-203 27,-63 52,-113 86,-171 26,-43 51,-87 74,-132 10,-20 19,-41 27,-63 -38,55 -71,94 -108,130 -41,39 -87,75 -149,123 -44,34 -85,71 -122,112 -38,40 -72,84 -104,131 -40,62 -70,122 -87,182 -12,62 -13,108 -11,165 -11,-14 -15,-55 -16,-95 -2,-105 36,-178 94,-265 33,-48 68,-93 106,-134 39,-42 80,-80 125,-115 62,-48 107,-83 147,-122 40,-38 75,-80 116,-141 20,-29 34,-63 45,-98 3,-11 6,-22 8,-34 4,-23 8,-46 11,-69 1,-9 2,-17 2,-25l0 0c2,-28 2,-57 -1,-84 -2,-26 -6,-51 -12,-72 -2,-6 -3,-11 -5,-16 9,68 3,120 -7,158 -12,44 -48,112 -73,151 -20,30 -47,58 -83,90 -35,31 -78,65 -130,106 -21,16 -41,32 -60,47 -20,17 -39,33 -56,48 -57,50 -98,89 -130,133 -33,43 -57,91 -83,162 -22,62 -63,151 -39,266 2,4 -37,-28 -21,-141 13,-91 69,-229 123,-302 34,-45 76,-85 134,-136 19,-16 38,-32 57,-48 19,-16 39,-32 60,-48 52,-41 95,-75 129,-105 34,-30 60,-57 78,-85 24,-35 43,-74 57,-120 14,-46 21,-98 21,-161 -1,-38 -11,-81 -27,-123 -4,-12 -9,-23 -13,-35 6,29 8,55 8,80 -1,40 -10,77 -24,121 -4,11 -7,21 -11,30 -4,10 -9,20 -14,29 -24,40 -56,80 -92,116 -135,141 -277,220 -399,391 -23,32 -41,63 -57,97 -15,34 -28,71 -39,113 -17,65 -29,166 -15,232 -12,-10 -30,-76 -26,-124 2,-38 8,-75 18,-114 11,-44 24,-82 40,-117 17,-36 36,-68 59,-100 123,-173 265,-253 402,-394 34,-36 65,-74 88,-112 5,-8 9,-17 12,-26 4,-10 8,-19 11,-29 14,-41 22,-76 23,-114 1,-37 -6,-77 -23,-128 -8,-27 -18,-52 -27,-76 8,51 9,99 2,147 -15,92 -65,179 -167,266 -33,30 -64,57 -94,82 -50,43 -96,82 -138,128 -21,23 -40,47 -59,74 -19,28 -38,57 -56,90 -13,22 -25,44 -36,67 -10,22 -20,45 -28,66 -16,51 -27,96 -33,136 -7,40 -9,91 -8,122 -21,-32 -23,-79 -16,-125 6,-41 17,-88 34,-140l0 -1c9,-23 19,-46 30,-68 10,-23 22,-46 36,-69 19,-33 38,-63 57,-91 20,-28 40,-54 62,-78 42,-46 89,-86 139,-129 30,-25 61,-52 93,-81l1 -1c98,-83 145,-166 159,-252 12,-71 1,-146 -22,-227l-1 22c1,54 -11,108 -39,163 -26,51 -66,102 -122,153l0 0c-24,22 -48,44 -72,66 -44,41 -89,81 -128,122 -26,28 -51,56 -73,86 -22,30 -42,61 -59,93 -21,36 -41,81 -58,126 -16,43 -29,87 -37,127 -5,27 -8,53 -10,80 -3,27 -5,68 -5,95 -23,-61 -19,-124 -9,-180 8,-40 22,-86 39,-130 17,-47 38,-92 59,-130 18,-33 38,-64 61,-95 23,-31 48,-60 75,-89 39,-41 84,-82 128,-122 25,-23 50,-45 73,-67l0 0c54,-49 92,-98 117,-146 26,-51 37,-102 36,-152l0 0 4 -214c-1,3 -1,6 -2,9 -18,63 -41,128 -57,158l0 0c-20,38 -43,75 -70,109 -27,35 -58,66 -94,95 -24,23 -47,45 -70,67 -153,147 -297,286 -323,516 -4,38 -6,76 -6,113 -1,38 -5,102 -4,140 -16,-28 -22,-95 -21,-144z"/>
   <path class="fil0" d="M1186 3389c-300,-108 -557,-307 -738,-564 -175,-251 -278,-556 -278,-885 0,-333 105,-641 284,-893 184,-258 446,-457 751,-563l12 34c-298,103 -554,298 -733,550 -175,246 -278,547 -278,872 0,322 101,620 272,864 176,251 427,446 720,551l-12 34zm1006 -2909c308,104 573,303 759,562 181,253 288,563 288,898 0,328 -103,632 -277,882 -180,257 -435,457 -734,565l-13 -33c292,-107 542,-301 717,-552 170,-244 270,-541 270,-862 0,-327 -104,-630 -281,-877 -182,-253 -440,-448 -741,-549l12 -34z"/>
   <path class="fil0" d="M1292 3311c-15,-2 -40,-10 -67,-20 -41,-15 -85,-34 -105,-43 -253,-114 -467,-299 -616,-530 -145,-224 -229,-491 -229,-778 0,-310 98,-597 265,-832 171,-240 415,-426 699,-524l4 9c-283,98 -525,282 -695,521 -165,233 -263,518 -263,826 0,285 84,550 227,772 149,230 361,414 612,527 20,9 64,28 104,42 27,10 51,18 65,20l-1 10zm866 -2731c287,97 534,282 707,524 169,235 268,524 268,836 0,257 -75,501 -202,712 -133,224 -325,412 -548,541 -41,24 -124,62 -207,95 -69,27 -139,51 -187,60l-2 -10c47,-9 116,-33 185,-60 83,-32 165,-70 206,-93 221,-129 412,-316 545,-538 126,-210 200,-452 200,-707 0,-310 -99,-597 -266,-831 -172,-239 -417,-424 -702,-519l3 -10z"/>
   <path class="fil0" d="M1305 3268c-15,-2 -39,-10 -65,-19 -39,-14 -82,-33 -102,-41 -244,-111 -452,-290 -596,-514 -140,-217 -221,-476 -221,-753 0,-301 95,-578 256,-806 166,-233 402,-412 677,-507l3 9c-273,94 -507,273 -672,504 -160,226 -254,502 -254,800 0,275 80,532 219,748 144,222 349,400 592,509 20,9 63,27 101,41 26,10 50,17 64,19l-2 10zm839 -2644c278,93 516,273 684,507 163,228 260,507 260,810 0,248 -73,485 -195,690 -130,216 -316,398 -531,523 -40,23 -120,60 -201,92 -67,26 -135,49 -181,58l-2 -10c46,-9 113,-31 179,-57 81,-32 160,-69 200,-91 214,-125 398,-305 527,-521 122,-203 194,-437 194,-684 0,-300 -96,-578 -258,-804 -167,-233 -404,-411 -679,-504l3 -9z"/>
   <polygon class="fil1" points="2455,1872 2462,1896 2484,1903 2462,1911 2455,1935 2448,1911 2426,1903 2448,1896 "/>
   <polygon class="fil1" points="2277,1581 2284,1605 2306,1613 2284,1620 2277,1644 2270,1620 2248,1613 2270,1605 "/>
   <polygon class="fil1" points="2379,1159 2388,1189 2418,1199 2388,1208 2379,1239 2369,1208 2339,1199 2369,1189 "/>
   <polygon class="fil1" points="2612,1464 2620,1488 2646,1495 2620,1503 2612,1526 2604,1503 2577,1495 2604,1488 "/>
   <polygon class="fil1" points="2929,1873 2937,1897 2964,1904 2937,1911 2929,1935 2921,1911 2895,1904 2921,1897 "/>
   <polygon class="fil1" points="2620,2137 2628,2161 2654,2168 2628,2176 2620,2200 2612,2176 2586,2168 2612,2161 "/>
   <polygon class="fil1" points="2280,2677 2288,2701 2315,2708 2288,2716 2280,2740 2272,2716 2246,2708 2272,2701 "/>
   <polygon class="fil1" points="2194,3001 2205,3033 2240,3043 2205,3053 2194,3085 2183,3053 2148,3043 2183,3033 "/>
   <polygon class="fil1" points="1129,2673 1138,2700 1167,2708 1138,2716 1129,2743 1120,2716 1090,2708 1120,2700 "/>
   <polygon class="fil1" points="818,2141 827,2168 857,2176 827,2185 818,2212 809,2185 779,2176 809,2168 "/>
   <polygon class="fil1" points="483,1870 492,1897 521,1905 492,1914 483,1940 474,1914 444,1905 474,1897 "/>
   <polygon class="fil1" points="957,1874 965,1896 989,1903 965,1910 957,1932 950,1910 925,1903 950,1896 "/>
   <polygon class="fil1" points="807,1467 815,1489 839,1496 815,1502 807,1524 800,1502 776,1496 800,1489 "/>
   <polygon class="fil1" points="1128,1579 1135,1603 1160,1611 1135,1619 1128,1643 1120,1619 1096,1611 1120,1603 "/>
   <polygon class="fil1" points="1028,1166 1038,1195 1069,1204 1038,1212 1028,1241 1018,1212 987,1204 1018,1195 "/>
   <polygon class="fil1" points="1224,3007 1234,3039 1269,3049 1234,3058 1224,3090 1213,3058 1178,3049 1213,3039 "/>
   <path class="fil1" d="M1139 3477c6,0 11,5 11,11 0,6 -5,11 -11,11 -6,0 -11,-5 -11,-11 0,-6 5,-11 11,-11z"/>
   <path class="fil1" d="M976 3416c6,0 11,5 11,11 0,6 -5,11 -11,11 -6,0 -11,-5 -11,-11 0,-6 5,-11 11,-11z"/>
   <path class="fil1" d="M853 3347c6,0 11,5 11,11 0,6 -5,11 -11,11 -7,0 -11,-5 -11,-11 0,-6 4,-11 11,-11z"/>
   <path class="fil1" d="M745 3282c6,0 11,5 11,11 0,6 -5,11 -11,11 -7,0 -11,-5 -11,-11 0,-6 4,-11 11,-11z"/>
   <path class="fil1" d="M626 3171c6,0 11,5 11,11 0,6 -5,11 -11,11 -7,0 -11,-5 -11,-11 0,-6 4,-11 11,-11z"/>
   <path class="fil1" d="M511 3046c6,0 11,5 11,11 0,6 -5,11 -11,11 -6,0 -11,-5 -11,-11 0,-6 5,-11 11,-11z"/>
   <path class="fil1" d="M397 2920c6,0 11,5 11,11 0,6 -5,11 -11,11 -6,0 -11,-5 -11,-11 0,-6 5,-11 11,-11z"/>
   <path class="fil1" d="M305 2776c6,0 11,5 11,11 0,6 -5,11 -11,11 -6,0 -11,-5 -11,-11 0,-6 5,-11 11,-11z"/>
   <path class="fil1" d="M177 2871c6,0 11,5 11,11 0,6 -5,11 -11,11 -6,0 -11,-5 -11,-11 0,-6 5,-11 11,-11z"/>
   <path class="fil1" d="M275 3005c6,0 11,5 11,11 0,6 -5,11 -11,11 -6,0 -11,-5 -11,-11 0,-6 5,-11 11,-11z"/>
   <path class="fil1" d="M396 3144c6,0 11,5 11,11 0,6 -5,11 -11,11 -7,0 -11,-5 -11,-11 0,-6 4,-11 11,-11z"/>
   <path class="fil1" d="M535 3264c6,0 11,5 11,11 0,6 -5,11 -11,11 -6,0 -11,-5 -11,-11 0,-6 5,-11 11,-11z"/>
   <path class="fil1" d="M213 2624c6,0 11,4 11,11 0,6 -5,10 -11,10 -6,0 -11,-4 -11,-10 0,-7 5,-11 11,-11z"/>
   <path class="fil1" d="M1053 2960c9,0 17,8 17,18 0,9 -8,17 -17,17 -10,0 -18,-8 -18,-17 0,-10 8,-18 18,-18z"/>
   <path class="fil1" d="M945 2857c9,0 17,8 17,17 0,9 -8,17 -17,17 -9,0 -17,-8 -17,-17 0,-9 8,-17 17,-17z"/>
   <path class="fil1" d="M782 2721c9,0 17,7 17,17 0,9 -8,16 -17,16 -10,0 -17,-7 -17,-16 0,-10 7,-17 17,-17z"/>
   <path class="fil1" d="M618 2472c10,0 17,8 17,17 0,9 -7,17 -17,17 -9,0 -16,-8 -16,-17 0,-9 7,-17 16,-17z"/>
   <path class="fil1" d="M805 2415c6,0 11,5 11,11 0,6 -5,11 -11,11 -6,0 -11,-5 -11,-11 0,-6 5,-11 11,-11z"/>
   <path class="fil1" d="M703 2031c6,0 11,5 11,11 0,7 -5,11 -11,11 -6,0 -11,-4 -11,-11 0,-6 5,-11 11,-11z"/>
   <path class="fil1" d="M703 1782c6,0 11,5 11,11 0,6 -5,11 -11,11 -6,0 -11,-5 -11,-11 0,-6 5,-11 11,-11z"/>
   <path class="fil1" d="M795 1672c6,0 11,5 11,11 0,6 -5,11 -11,11 -6,0 -11,-5 -11,-11 0,-6 5,-11 11,-11z"/>
   <path class="fil1" d="M1003 1456c6,0 11,5 11,11 0,6 -5,11 -11,11 -6,0 -11,-5 -11,-11 0,-6 5,-11 11,-11z"/>
   <path class="fil1" d="M895 1250c6,0 11,5 11,11 0,6 -5,11 -11,11 -7,0 -12,-5 -12,-11 0,-6 5,-11 12,-11z"/>
   <path class="fil1" d="M1001 2443c6,0 11,5 11,11 0,6 -5,11 -11,11 -6,0 -11,-5 -11,-11 0,-6 5,-11 11,-11z"/>
   <path class="fil1" d="M1128 2220c7,0 13,6 13,13 0,7 -6,13 -13,13 -7,0 -13,-6 -13,-13 0,-7 6,-13 13,-13z"/>
   <path class="fil1" d="M886 2582c6,0 11,5 11,11 0,6 -5,11 -11,11 -6,0 -11,-5 -11,-11 0,-6 5,-11 11,-11z"/>
   <path class="fil1" d="M549 2316c9,0 17,8 17,17 0,9 -8,17 -17,17 -9,0 -17,-8 -17,-17 0,-9 8,-17 17,-17z"/>
   <path class="fil1" d="M497 2148c9,0 16,8 16,17 0,9 -7,17 -16,17 -10,0 -17,-8 -17,-17 0,-9 7,-17 17,-17z"/>
   <path class="fil1" d="M501 1722c9,0 17,7 17,16 0,10 -8,17 -17,17 -9,0 -17,-7 -17,-17 0,-9 8,-16 17,-16z"/>
   <path class="fil1" d="M543 1559c9,0 16,8 16,17 0,9 -7,17 -16,17 -10,0 -17,-8 -17,-17 0,-9 7,-17 17,-17z"/>
   <path class="fil1" d="M601 1397c9,0 17,7 17,17 0,9 -8,16 -17,16 -9,0 -17,-7 -17,-16 0,-10 8,-17 17,-17z"/>
   <path class="fil1" d="M685 1239c9,0 17,8 17,17 0,9 -8,17 -17,17 -9,0 -17,-8 -17,-17 0,-9 8,-17 17,-17z"/>
   <path class="fil1" d="M799 1096c10,0 17,7 17,17 0,9 -7,16 -17,16 -9,0 -16,-7 -16,-16 0,-10 7,-17 16,-17z"/>
   <path class="fil1" d="M947 978c9,0 17,8 17,17 0,9 -8,17 -17,17 -9,0 -17,-8 -17,-17 0,-9 8,-17 17,-17z"/>
   <path class="fil1" d="M1070 884c10,0 17,7 17,17 0,9 -7,16 -17,16 -9,0 -16,-7 -16,-16 0,-10 7,-17 16,-17z"/>
   <path class="fil1" d="M149 2460c6,0 11,5 11,11 0,6 -5,11 -11,11 -6,0 -11,-5 -11,-11 0,-6 5,-11 11,-11z"/>
   <path class="fil1" d="M103 2292c6,0 11,5 11,11 0,6 -5,11 -11,11 -6,0 -11,-5 -11,-11 0,-6 5,-11 11,-11z"/>
   <path class="fil1" d="M76 2122c6,0 11,5 11,11 0,6 -5,11 -11,11 -6,0 -11,-5 -11,-11 0,-6 5,-11 11,-11z"/>
   <path class="fil1" d="M60 1951c6,0 11,5 11,11 0,6 -5,11 -11,11 -6,0 -11,-5 -11,-11 0,-6 5,-11 11,-11z"/>
   <path class="fil1" d="M66 1788c6,0 11,5 11,11 0,7 -5,11 -11,11 -6,0 -11,-4 -11,-11 0,-6 5,-11 11,-11z"/>
   <path class="fil1" d="M88 1621c6,0 11,5 11,11 0,6 -5,11 -11,11 -6,0 -11,-5 -11,-11 0,-6 5,-11 11,-11z"/>
   <path class="fil1" d="M132 1451c6,0 11,5 11,11 0,6 -5,11 -11,11 -6,0 -11,-5 -11,-11 0,-6 5,-11 11,-11z"/>
   <path class="fil1" d="M195 1289c6,0 11,5 11,11 0,6 -5,11 -11,11 -6,0 -11,-5 -11,-11 0,-6 5,-11 11,-11z"/>
   <path class="fil1" d="M281 1133c6,0 11,5 11,11 0,6 -5,11 -11,11 -6,0 -11,-5 -11,-11 0,-6 5,-11 11,-11z"/>
   <path class="fil1" d="M373 981c6,0 11,5 11,11 0,6 -5,11 -11,11 -6,0 -11,-5 -11,-11 0,-6 5,-11 11,-11z"/>
   <path class="fil1" d="M482 851c6,0 11,5 11,11 0,6 -5,11 -11,11 -6,0 -11,-5 -11,-11 0,-6 5,-11 11,-11z"/>
   <path class="fil1" d="M601 738c6,0 11,5 11,11 0,6 -5,11 -11,11 -6,0 -11,-5 -11,-11 0,-6 5,-11 11,-11z"/>
   <path class="fil1" d="M727 634c6,0 11,4 11,10 0,7 -5,11 -11,11 -6,0 -11,-4 -11,-11 0,-6 5,-10 11,-10z"/>
   <path class="fil1" d="M846 531c6,0 11,5 11,11 0,6 -5,11 -11,11 -6,0 -11,-5 -11,-11 0,-6 5,-11 11,-11z"/>
   <path class="fil1" d="M989 453c6,0 11,4 11,11 0,6 -5,11 -11,11 -6,0 -11,-5 -11,-11 0,-7 5,-11 11,-11z"/>
   <path class="fil1" d="M1139 368c7,0 11,5 11,11 0,6 -4,11 -11,11 -6,0 -11,-5 -11,-11 0,-6 5,-11 11,-11z"/>
   <path class="fil1" d="M1290 313c6,0 11,4 11,10 0,7 -5,11 -11,11 -6,0 -11,-4 -11,-11 0,-6 5,-10 11,-10z"/>
   <path class="fil1" d="M1410 136c6,0 11,5 11,11 0,6 -5,11 -11,11 -6,0 -11,-5 -11,-11 0,-6 5,-11 11,-11z"/>
   <path class="fil1" d="M1240 165c6,0 11,5 11,11 0,6 -5,11 -11,11 -6,0 -11,-5 -11,-11 0,-6 5,-11 11,-11z"/>
   <path class="fil1" d="M1180 0c6,0 11,5 11,11 0,6 -5,11 -11,11 -6,0 -11,-5 -11,-11 0,-6 5,-11 11,-11z"/>
   <path class="fil1" d="M804 180c6,0 11,5 11,11 0,6 -5,11 -11,11 -6,0 -11,-5 -11,-11 0,-6 5,-11 11,-11z"/>
   <path class="fil1" d="M511 395c6,0 11,5 11,11 0,6 -5,11 -11,11 -6,0 -11,-5 -11,-11 0,-6 5,-11 11,-11z"/>
   <path class="fil1" d="M260 655c6,0 11,5 11,11 0,6 -5,11 -11,11 -6,0 -11,-5 -11,-11 0,-6 5,-11 11,-11z"/>
   <path class="fil1" d="M1075 231c6,0 11,5 11,11 0,6 -5,11 -11,11 -6,0 -11,-5 -11,-11 0,-6 5,-11 11,-11z"/>
   <path class="fil1" d="M906 315c7,0 11,4 11,11 0,6 -4,11 -11,11 -6,0 -11,-5 -11,-11 0,-7 5,-11 11,-11z"/>
   <path class="fil1" d="M763 409c6,0 11,5 11,11 0,6 -5,11 -11,11 -6,0 -11,-5 -11,-11 0,-6 5,-11 11,-11z"/>
   <path class="fil1" d="M615 512c6,0 11,5 11,11 0,6 -5,11 -11,11 -6,0 -11,-5 -11,-11 0,-6 5,-11 11,-11z"/>
   <path class="fil1" d="M494 629c6,0 11,5 11,11 0,6 -5,11 -11,11 -6,0 -11,-5 -11,-11 0,-6 5,-11 11,-11z"/>
   <path class="fil1" d="M373 754c6,0 11,5 11,11 0,7 -5,11 -11,11 -6,0 -11,-4 -11,-11 0,-6 5,-11 11,-11z"/>
   <path class="fil1" d="M258 897c6,0 11,5 11,11 0,6 -5,11 -11,11 -6,0 -11,-5 -11,-11 0,-6 5,-11 11,-11z"/>
   <path class="fil1" d="M188 1080c6,0 11,5 11,11 0,6 -5,11 -11,11 -6,0 -11,-5 -11,-11 0,-6 5,-11 11,-11z"/>
   <path class="fil1" d="M126 1254c6,0 11,5 11,11 0,6 -5,11 -11,11 -6,0 -11,-5 -11,-11 0,-6 5,-11 11,-11z"/>
   <path class="fil1" d="M64 1428c6,0 11,5 11,11 0,6 -5,11 -11,11 -6,0 -11,-5 -11,-11 0,-6 5,-11 11,-11z"/>
   <path class="fil1" d="M11 1608c6,0 11,5 11,11 0,6 -5,11 -11,11 -6,0 -11,-5 -11,-11 0,-6 5,-11 11,-11z"/>
   <g>
    <polygon class="fil1" points="2281,2673 2272,2700 2242,2708 2272,2716 2281,2743 2290,2716 2320,2708 2290,2700 "/>
    <polygon class="fil1" points="2927,1870 2918,1897 2888,1905 2918,1914 2927,1940 2936,1914 2966,1905 2936,1897 "/>
    <polygon class="fil1" points="2453,1874 2445,1896 2421,1903 2445,1910 2453,1932 2460,1910 2485,1903 2460,1896 "/>
    <polygon class="fil1" points="2282,1579 2274,1603 2250,1611 2274,1619 2282,1643 2289,1619 2314,1611 2289,1603 "/>
    <path class="fil1" d="M2270 3477c-6,0 -11,5 -11,11 0,6 5,11 11,11 6,0 11,-5 11,-11 0,-6 -5,-11 -11,-11z"/>
    <path class="fil1" d="M2434 3416c-6,0 -11,5 -11,11 0,6 5,11 11,11 6,0 11,-5 11,-11 0,-6 -5,-11 -11,-11z"/>
    <path class="fil1" d="M2557 3347c-6,0 -11,5 -11,11 0,6 5,11 11,11 6,0 11,-5 11,-11 0,-6 -5,-11 -11,-11z"/>
    <path class="fil1" d="M2665 3282c-6,0 -11,5 -11,11 0,6 5,11 11,11 6,0 11,-5 11,-11 0,-6 -5,-11 -11,-11z"/>
    <path class="fil1" d="M2784 3171c-6,0 -11,5 -11,11 0,6 5,11 11,11 6,0 11,-5 11,-11 0,-6 -5,-11 -11,-11z"/>
    <path class="fil1" d="M2898 3046c-6,0 -11,5 -11,11 0,6 5,11 11,11 6,0 11,-5 11,-11 0,-6 -5,-11 -11,-11z"/>
    <path class="fil1" d="M3013 2920c-7,0 -11,5 -11,11 0,6 4,11 11,11 6,0 11,-5 11,-11 0,-6 -5,-11 -11,-11z"/>
    <path class="fil1" d="M3105 2776c-6,0 -11,5 -11,11 0,6 5,11 11,11 6,0 11,-5 11,-11 0,-6 -5,-11 -11,-11z"/>
    <path class="fil1" d="M3233 2871c-6,0 -11,5 -11,11 0,6 5,11 11,11 6,0 11,-5 11,-11 0,-6 -5,-11 -11,-11z"/>
    <path class="fil1" d="M3134 3005c-6,0 -11,5 -11,11 0,6 5,11 11,11 6,0 11,-5 11,-11 0,-6 -5,-11 -11,-11z"/>
    <path class="fil1" d="M3014 3144c-6,0 -11,5 -11,11 0,6 5,11 11,11 6,0 11,-5 11,-11 0,-6 -5,-11 -11,-11z"/>
    <path class="fil1" d="M2875 3264c-6,0 -11,5 -11,11 0,6 5,11 11,11 6,0 11,-5 11,-11 0,-6 -5,-11 -11,-11z"/>
    <path class="fil1" d="M3197 2624c-6,0 -11,4 -11,11 0,6 5,10 11,10 6,0 11,-4 11,-10 0,-7 -5,-11 -11,-11z"/>
    <path class="fil1" d="M2357 2960c-10,0 -18,8 -18,18 0,9 8,17 18,17 10,0 18,-8 18,-17 0,-10 -8,-18 -18,-18z"/>
    <path class="fil1" d="M2465 2857c-10,0 -17,8 -17,17 0,9 7,17 17,17 9,0 16,-8 16,-17 0,-9 -7,-17 -16,-17z"/>
    <path class="fil1" d="M2628 2721c-9,0 -17,7 -17,17 0,9 8,16 17,16 9,0 17,-7 17,-16 0,-10 -8,-17 -17,-17z"/>
    <path class="fil1" d="M2791 2472c-9,0 -16,8 -16,17 0,9 7,17 16,17 10,0 17,-8 17,-17 0,-9 -7,-17 -17,-17z"/>
    <path class="fil1" d="M2605 2415c-6,0 -11,5 -11,11 0,6 5,11 11,11 6,0 11,-5 11,-11 0,-6 -5,-11 -11,-11z"/>
    <path class="fil1" d="M2707 2031c-6,0 -11,5 -11,11 0,7 5,11 11,11 6,0 11,-4 11,-11 0,-6 -5,-11 -11,-11z"/>
    <path class="fil1" d="M2707 1782c-6,0 -11,5 -11,11 0,6 5,11 11,11 6,0 11,-5 11,-11 0,-6 -5,-11 -11,-11z"/>
    <path class="fil1" d="M2615 1672c-6,0 -11,5 -11,11 0,6 5,11 11,11 6,0 11,-5 11,-11 0,-6 -5,-11 -11,-11z"/>
    <path class="fil1" d="M2407 1456c-6,0 -11,5 -11,11 0,6 5,11 11,11 6,0 11,-5 11,-11 0,-6 -5,-11 -11,-11z"/>
    <path class="fil1" d="M2515 1250c-6,0 -11,5 -11,11 0,6 5,11 11,11 6,0 11,-5 11,-11 0,-6 -5,-11 -11,-11z"/>
    <path class="fil1" d="M2408 2443c-6,0 -11,5 -11,11 0,6 5,11 11,11 6,0 11,-5 11,-11 0,-6 -5,-11 -11,-11z"/>
    <path class="fil1" d="M2282 2220c-8,0 -14,6 -14,13 0,7 6,13 14,13 7,0 13,-6 13,-13 0,-7 -6,-13 -13,-13z"/>
    <path class="fil1" d="M2524 2582c-6,0 -11,5 -11,11 0,6 5,11 11,11 6,0 11,-5 11,-11 0,-6 -5,-11 -11,-11z"/>
    <path class="fil1" d="M2861 2316c-10,0 -17,8 -17,17 0,9 7,17 17,17 9,0 16,-8 16,-17 0,-9 -7,-17 -16,-17z"/>
    <path class="fil1" d="M2913 2148c-9,0 -17,8 -17,17 0,9 8,17 17,17 9,0 17,-8 17,-17 0,-9 -8,-17 -17,-17z"/>
    <path class="fil1" d="M2909 1722c-10,0 -17,7 -17,16 0,10 7,17 17,17 9,0 16,-7 16,-17 0,-9 -7,-16 -16,-16z"/>
    <path class="fil1" d="M2867 1559c-9,0 -17,8 -17,17 0,9 8,17 17,17 9,0 17,-8 17,-17 0,-9 -8,-17 -17,-17z"/>
    <path class="fil1" d="M2809 1397c-10,0 -17,7 -17,17 0,9 7,16 17,16 9,0 16,-7 16,-16 0,-10 -7,-17 -16,-17z"/>
    <path class="fil1" d="M2725 1239c-10,0 -17,8 -17,17 0,9 7,17 17,17 9,0 16,-8 16,-17 0,-9 -7,-17 -16,-17z"/>
    <path class="fil1" d="M2610 1096c-9,0 -16,7 -16,17 0,9 7,16 16,16 10,0 17,-7 17,-16 0,-10 -7,-17 -17,-17z"/>
    <path class="fil1" d="M2462 978c-9,0 -16,8 -16,17 0,9 7,17 16,17 10,0 17,-8 17,-17 0,-9 -7,-17 -17,-17z"/>
    <path class="fil1" d="M2339 884c-9,0 -17,7 -17,17 0,9 8,16 17,16 9,0 17,-7 17,-16 0,-10 -8,-17 -17,-17z"/>
    <path class="fil1" d="M3261 2460c-6,0 -11,5 -11,11 0,6 5,11 11,11 6,0 11,-5 11,-11 0,-6 -5,-11 -11,-11z"/>
    <path class="fil1" d="M3307 2292c-6,0 -11,5 -11,11 0,6 5,11 11,11 6,0 11,-5 11,-11 0,-6 -5,-11 -11,-11z"/>
    <path class="fil1" d="M3334 2122c-6,0 -11,5 -11,11 0,6 5,11 11,11 6,0 11,-5 11,-11 0,-6 -5,-11 -11,-11z"/>
    <path class="fil1" d="M3350 1951c-6,0 -11,5 -11,11 0,6 5,11 11,11 6,0 11,-5 11,-11 0,-6 -5,-11 -11,-11z"/>
    <path class="fil1" d="M3344 1788c-6,0 -11,5 -11,11 0,7 5,11 11,11 6,0 11,-4 11,-11 0,-6 -5,-11 -11,-11z"/>
    <path class="fil1" d="M3322 1621c-6,0 -11,5 -11,11 0,6 5,11 11,11 6,0 11,-5 11,-11 0,-6 -5,-11 -11,-11z"/>
    <path class="fil1" d="M3278 1451c-6,0 -11,5 -11,11 0,6 5,11 11,11 6,0 11,-5 11,-11 0,-6 -5,-11 -11,-11z"/>
    <path class="fil1" d="M3214 1289c-6,0 -11,5 -11,11 0,6 5,11 11,11 6,0 11,-5 11,-11 0,-6 -5,-11 -11,-11z"/>
    <path class="fil1" d="M3129 1133c-6,0 -11,5 -11,11 0,6 5,11 11,11 6,0 11,-5 11,-11 0,-6 -5,-11 -11,-11z"/>
    <path class="fil1" d="M3036 981c-6,0 -11,5 -11,11 0,6 5,11 11,11 6,0 11,-5 11,-11 0,-6 -5,-11 -11,-11z"/>
    <path class="fil1" d="M2928 851c-6,0 -11,5 -11,11 0,6 5,11 11,11 6,0 11,-5 11,-11 0,-6 -5,-11 -11,-11z"/>
    <path class="fil1" d="M2808 738c-6,0 -11,5 -11,11 0,6 5,11 11,11 6,0 11,-5 11,-11 0,-6 -5,-11 -11,-11z"/>
    <path class="fil1" d="M2683 634c-6,0 -11,4 -11,10 0,7 5,11 11,11 6,0 11,-4 11,-11 0,-6 -5,-10 -11,-10z"/>
    <path class="fil1" d="M2564 531c-6,0 -11,5 -11,11 0,6 5,11 11,11 6,0 11,-5 11,-11 0,-6 -5,-11 -11,-11z"/>
    <path class="fil1" d="M2420 453c-6,0 -11,4 -11,11 0,6 5,11 11,11 6,0 11,-5 11,-11 0,-7 -5,-11 -11,-11z"/>
    <path class="fil1" d="M2270 368c-6,0 -11,5 -11,11 0,6 5,11 11,11 6,0 11,-5 11,-11 0,-6 -5,-11 -11,-11z"/>
    <path class="fil1" d="M2120 313c-6,0 -11,4 -11,10 0,7 5,11 11,11 6,0 11,-4 11,-11 0,-6 -5,-10 -11,-10z"/>
    <path class="fil1" d="M1999 136c-6,0 -10,5 -10,11 0,6 4,11 10,11 7,0 11,-5 11,-11 0,-6 -4,-11 -11,-11z"/>
    <path class="fil1" d="M2170 165c-6,0 -11,5 -11,11 0,6 5,11 11,11 6,0 11,-5 11,-11 0,-6 -5,-11 -11,-11z"/>
    <path class="fil1" d="M2229 0c-6,0 -11,5 -11,11 0,6 5,11 11,11 6,0 11,-5 11,-11 0,-6 -5,-11 -11,-11z"/>
    <path class="fil1" d="M2606 180c-6,0 -11,5 -11,11 0,6 5,11 11,11 6,0 11,-5 11,-11 0,-6 -5,-11 -11,-11z"/>
    <path class="fil1" d="M2899 395c-6,0 -11,5 -11,11 0,6 5,11 11,11 6,0 11,-5 11,-11 0,-6 -5,-11 -11,-11z"/>
    <path class="fil1" d="M3149 655c-6,0 -11,5 -11,11 0,6 5,11 11,11 6,0 11,-5 11,-11 0,-6 -5,-11 -11,-11z"/>
    <path class="fil1" d="M2334 231c-6,0 -11,5 -11,11 0,6 5,11 11,11 7,0 11,-5 11,-11 0,-6 -4,-11 -11,-11z"/>
    <path class="fil1" d="M2503 315c-6,0 -11,4 -11,11 0,6 5,11 11,11 6,0 11,-5 11,-11 0,-7 -5,-11 -11,-11z"/>
    <path class="fil1" d="M2647 409c-6,0 -11,5 -11,11 0,6 5,11 11,11 6,0 11,-5 11,-11 0,-6 -5,-11 -11,-11z"/>
    <path class="fil1" d="M2794 512c-6,0 -11,5 -11,11 0,6 5,11 11,11 7,0 11,-5 11,-11 0,-6 -4,-11 -11,-11z"/>
    <path class="fil1" d="M2916 629c-6,0 -11,5 -11,11 0,6 5,11 11,11 6,0 11,-5 11,-11 0,-6 -5,-11 -11,-11z"/>
    <path class="fil1" d="M3036 754c-6,0 -11,5 -11,11 0,7 5,11 11,11 6,0 11,-4 11,-11 0,-6 -5,-11 -11,-11z"/>
    <path class="fil1" d="M3152 897c-6,0 -11,5 -11,11 0,6 5,11 11,11 6,0 11,-5 11,-11 0,-6 -5,-11 -11,-11z"/>
    <path class="fil1" d="M3222 1080c-6,0 -11,5 -11,11 0,6 5,11 11,11 6,0 11,-5 11,-11 0,-6 -5,-11 -11,-11z"/>
    <path class="fil1" d="M3284 1254c-6,0 -11,5 -11,11 0,6 5,11 11,11 6,0 11,-5 11,-11 0,-6 -5,-11 -11,-11z"/>
    <path class="fil1" d="M3346 1428c-6,0 -11,5 -11,11 0,6 5,11 11,11 6,0 11,-5 11,-11 0,-6 -5,-11 -11,-11z"/>
    <path class="fil1" d="M3399 1608c-6,0 -11,5 -11,11 0,6 5,11 11,11 6,0 11,-5 11,-11 0,-6 -5,-11 -11,-11z"/>
   </g>
   <path class="fil1" d="M236 4141c-9,-3 -13,-10 -13,-22l0 -278c0,-12 4,-19 13,-21 15,-4 29,-7 44,-9 15,-1 30,-2 46,-2 40,0 69,8 87,24 18,16 27,39 27,69 0,15 -2,28 -8,39 -6,12 -17,22 -34,30 11,3 20,8 27,13 7,6 13,12 17,19 5,7 8,15 9,24 2,8 3,17 3,27 0,16 -2,30 -6,42 -5,12 -11,22 -20,30 -10,8 -22,15 -37,19 -15,4 -33,6 -54,6 -18,0 -36,0 -53,-2 -18,-1 -34,-4 -48,-8zm95 -27c30,0 51,-5 63,-15 12,-10 17,-25 17,-46 0,-8 -1,-17 -3,-24 -2,-7 -6,-13 -11,-19 -5,-5 -11,-9 -19,-12 -8,-3 -17,-5 -28,-5l-85 0 0 116c12,2 23,3 33,4 10,1 21,1 33,1zm-14 -268c-18,0 -36,2 -52,5l0 105 65 0c23,0 41,-4 51,-13 11,-9 17,-23 17,-41 0,-21 -7,-36 -21,-44 -13,-8 -33,-12 -60,-12zm460 141c0,53 -11,94 -32,122 -22,28 -56,42 -102,42 -47,0 -81,-14 -102,-42 -22,-28 -33,-69 -33,-122l0 -14c0,-53 11,-94 33,-122 21,-28 55,-42 102,-42 46,0 80,14 102,42 21,28 32,69 32,122l0 14zm-42 -13c0,-45 -8,-77 -23,-98 -15,-20 -38,-30 -69,-30 -31,0 -55,10 -70,30 -14,21 -22,53 -22,98l0 12c0,45 8,78 22,98 15,20 39,30 70,30 31,0 54,-10 69,-30 15,-20 23,-53 23,-98l0 -12zm356 13c0,25 -3,48 -7,68 -5,20 -13,38 -24,52 -11,14 -25,25 -44,33 -18,7 -41,11 -68,11 -15,0 -31,-1 -46,-3 -15,-1 -29,-4 -41,-8 -9,-2 -13,-9 -13,-21l0 -278c0,-12 4,-19 13,-21 12,-4 26,-6 41,-8 15,-2 31,-3 46,-3 27,0 50,4 68,11 19,8 33,19 44,33 11,14 19,32 24,52 4,20 7,43 7,68l0 14zm-200 122c17,3 34,5 51,5 22,0 40,-3 53,-8 14,-6 25,-15 33,-25 7,-11 13,-25 16,-41 3,-16 4,-34 4,-54l0 -12c0,-20 -1,-38 -4,-54 -3,-16 -9,-30 -16,-40 -8,-11 -19,-20 -33,-26 -13,-5 -31,-8 -53,-8 -17,0 -34,2 -51,5l0 258zm362 -122l85 -167c2,-4 5,-6 9,-6l30 0c3,0 5,1 5,3 1,2 1,4 0,6l-107 207 0 109c0,4 -3,7 -7,7l-29 0c-5,0 -7,-3 -7,-7l0 -109 -107 -207c-1,-2 -1,-4 0,-6 0,-2 2,-3 5,-3l30 0c4,0 7,2 9,6l84 167zm571 -5c4,1 5,3 5,7 0,18 -2,36 -6,53 -5,16 -11,31 -20,44l42 50c2,2 2,4 2,7 0,2 -2,3 -6,3l-36 0c-4,0 -8,-2 -12,-7l-18 -21c-13,10 -28,19 -44,25 -16,5 -34,8 -53,8 -37,0 -64,-8 -83,-24 -18,-16 -28,-37 -28,-63 0,-21 7,-40 19,-58 13,-18 32,-33 58,-45l-20 -23c-12,-14 -20,-26 -25,-36 -5,-11 -8,-22 -8,-34 0,-17 7,-32 20,-43 12,-11 34,-16 64,-16 14,0 29,1 44,2 14,2 27,4 39,7 3,1 5,3 5,6l0 21c0,4 -3,6 -8,5 -11,-1 -23,-2 -36,-3 -12,-1 -25,-1 -38,-1 -18,0 -31,2 -37,6 -6,4 -9,10 -9,18 0,5 1,11 5,18 3,7 9,16 18,26l117 139c5,-10 9,-21 12,-33 4,-11 6,-24 8,-39 1,-3 3,-5 7,-4l22 5zm-213 81c0,15 6,27 18,36 12,8 29,13 51,13 27,0 50,-9 69,-25l-86 -103c-18,13 -31,25 -39,38 -9,13 -13,27 -13,41zm454 -187c0,-12 1,-23 3,-32 3,-9 7,-16 12,-21 6,-5 14,-9 24,-11 10,-2 23,-3 39,-3 21,0 41,0 58,1 18,1 37,2 56,4 4,0 6,3 6,7l0 18c0,5 -2,7 -6,7l-122 0c-11,0 -18,2 -22,7 -4,5 -5,13 -5,22l0 86 134 0c5,0 7,2 7,6l0 24c0,4 -2,7 -7,7l-134 0 0 141c0,4 -3,7 -7,7l-29 0c-5,0 -7,-3 -7,-7l0 -263zm277 264c-1,4 -4,6 -8,6l-32 0c-5,0 -6,-3 -5,-8l95 -314c2,-6 6,-10 13,-10l44 0c7,0 11,4 13,10l94 314c2,5 0,8 -5,8l-31 0c-4,0 -7,-2 -8,-6l-22 -75 -126 0 -22 75zm33 -112l104 0 -52 -177 -52 177zm265 -42c0,21 2,39 5,56 4,16 9,29 17,40 8,10 18,19 30,24 13,6 28,8 47,8 11,0 22,0 34,-1 12,-1 24,-2 36,-3 5,-1 7,1 7,5l0 21c0,3 -2,5 -5,6 -12,3 -25,5 -39,7 -13,1 -27,2 -39,2 -25,0 -46,-4 -63,-12 -17,-7 -31,-19 -41,-33 -11,-14 -19,-31 -24,-51 -5,-20 -7,-43 -7,-67l0 -16c0,-24 2,-46 7,-66 5,-20 13,-38 24,-52 10,-14 24,-25 41,-33 17,-8 38,-12 63,-12 12,0 25,1 37,2 12,2 24,4 36,7 4,1 5,3 5,6l0 21c0,5 -2,6 -7,5 -12,-1 -23,-2 -33,-3 -10,-1 -21,-1 -32,-1 -19,0 -34,2 -47,8 -12,6 -22,14 -30,24 -8,11 -13,24 -17,41 -3,16 -5,34 -5,55l0 12zm238 -110c0,-12 1,-23 3,-32 2,-9 6,-16 12,-21 6,-5 14,-9 24,-11 10,-2 23,-3 39,-3 20,0 39,0 57,1 18,1 36,2 52,4 4,0 6,3 6,7l0 18c0,5 -2,7 -7,7l-117 0c-10,0 -17,2 -21,7 -4,5 -6,13 -6,22l0 82 135 0c4,0 7,2 7,6l0 24c0,5 -3,7 -7,7l-135 0 0 91c0,10 2,17 6,22 4,5 11,7 21,7l122 0c5,0 7,3 7,7l0 18c0,4 -2,7 -6,7 -20,2 -39,3 -56,4 -18,1 -37,1 -58,1 -16,0 -29,-1 -39,-3 -10,-2 -18,-6 -24,-11 -6,-5 -10,-12 -12,-21 -2,-9 -3,-19 -3,-32l0 -208z"/>
  </g>
 </g>
</svg>
